<?xml version="1.0" encoding="utf-8"?>
<!DOCTYPE svg PUBLIC "-//W3C//DTD SVG 1.1//EN" "http://www.w3.org/Graphics/SVG/1.1/DTD/svg11.dtd">
<svg version="1.1" id="Layer_1" xmlns="http://www.w3.org/2000/svg" xmlns:xlink="http://www.w3.org/1999/xlink" x="0px" y="0px"
	 width="1024px" height="1024px" viewBox="-226.035 -226.037 1024 1024" enable-background="new -226.035 -226.037 1024 1024"
	 xml:space="preserve">
<polygon points="722.221,715.895 722.221,263.379 562.24,423.363 495.974,489.632 "/>
<polygon points="495.974,15.5 584.445,103.983 722.221,241.766 722.221,-210.749 "/>
<polygon points="-210.747,-217.073 15.509,9.169 241.754,-217.073 "/>
<polygon points="252.57,246.24 478.837,19.98 26.327,19.98 "/>
<polygon points="252.573,-215.22 26.316,11.024 478.841,11.024 "/>
<polygon points="26.312,11.026 252.562,-215.222 252.562,-215.222 "/>
<polygon points="263.373,257.049 489.645,483.305 555.91,417.032 715.887,257.049 "/>
<path d="M489.645,483.305l66.268-66.271L489.645,483.305z"/>
<polygon points="263.377,248.092 715.879,248.092 566.323,98.522 489.649,21.837 "/>
<polygon points="715.887,248.092 566.323,98.522 715.879,248.092 "/>
<polygon points="-150.29,-143.953 -150.29,308.568 75.953,82.304 "/>
<polygon points="75.953,556.447 9.685,490.179 -150.29,330.185 -150.29,782.68 "/>
<polygon points="330.171,789.012 782.68,789.012 556.423,562.779 "/>
<polygon points="93.099,551.974 545.615,551.974 319.362,325.707 "/>
<polygon points="319.356,787.157 545.609,560.926 93.091,560.926 "/>
<polygon points="-143.962,314.903 308.549,314.903 82.29,88.637 "/>
<polygon points="-143.962,323.854 82.284,550.118 308.549,323.854 "/>
<polygon points="82.249,550.101 -144.003,323.852 -144.003,323.852 "/>
</svg>
