<?xml version="1.0" encoding="utf-8"?>
<!DOCTYPE svg PUBLIC "-//W3C//DTD SVG 1.1//EN" "http://www.w3.org/Graphics/SVG/1.1/DTD/svg11.dtd">
<svg version="1.1" id="Layer_1" xmlns="http://www.w3.org/2000/svg" xmlns:xlink="http://www.w3.org/1999/xlink" x="0px" y="0px"
	 width="1023.999px" height="1024px" viewBox="-226.034 -226.035 1023.999 1024"
	 enable-background="new -226.034 -226.035 1023.999 1024" xml:space="preserve">
<polygon fill="#00577B" points="722.221,715.889 722.221,263.375 562.24,423.363 495.975,489.627 "/>
<polygon fill="#01B0F0" points="495.975,15.497 584.446,103.981 722.221,241.764 722.221,-210.749 "/>
<polygon fill="#4FC9F5" points="-210.746,-217.073 15.508,9.167 241.752,-217.073 "/>
<polygon fill="#01B0F0" points="252.569,246.238 478.838,19.979 26.328,19.979 "/>
<polygon fill="#27BCF3" points="252.573,-215.22 26.317,11.023 478.842,11.023 "/>
<polygon fill="#27BCF3" points="26.313,11.025 252.561,-215.222 252.561,-215.222 "/>
<polygon fill="#0079AA" points="263.375,257.045 489.641,483.297 555.91,417.029 715.889,257.045 "/>
<path fill="#0079AA" d="M489.641,483.297l66.271-66.27L489.641,483.297z"/>
<polygon fill="#0096D3" points="263.379,248.09 715.881,248.09 566.323,98.52 489.645,21.835 "/>
<polygon fill="#0096D3" points="715.889,248.09 566.323,98.52 715.881,248.09 "/>
<polygon fill="#79201B" points="-150.291,-143.953 -150.291,308.566 75.953,82.301 "/>
<polygon fill="#F0453F" points="75.953,556.447 9.686,490.176 -150.291,330.186 -150.291,782.678 "/>
<polygon fill="#F47F7D" points="330.172,789.008 782.68,789.008 556.424,562.777 "/>
<polygon fill="#F0453F" points="93.102,551.973 545.615,551.973 319.364,325.703 "/>
<polygon fill="#F2625D" points="319.358,787.156 545.61,560.924 93.094,560.924 "/>
<polygon fill="#A42D26" points="-143.959,314.902 308.551,314.902 82.291,88.635 "/>
<polygon fill="#CC382F" points="-143.959,323.852 82.285,550.115 308.551,323.852 "/>
<polygon fill="#CC382F" points="82.25,550.1 -144.002,323.852 -144.002,323.852 "/>
</svg>
