<?xml version="1.0" encoding="utf-8"?>
<!DOCTYPE svg PUBLIC "-//W3C//DTD SVG 1.1//EN" "http://www.w3.org/Graphics/SVG/1.1/DTD/svg11.dtd">
<svg version="1.1" id="Layer_1" xmlns="http://www.w3.org/2000/svg" xmlns:xlink="http://www.w3.org/1999/xlink" x="0px" y="0px"
	 width="310px" height="310px" viewBox="63.964 63.964 310 310" enable-background="new 63.964 63.964 310 310"
	 xml:space="preserve">
<g id="Background" fill="#9E90AA">
	<rect x="63.964" y="63.964" width="310" height="310"/>
</g>
<g id="Logo" fill="#FFFFFF">
	<polygon points="317.292,313.223 317.292,218.244 269.805,265.73"/>
	<polygon points="317.292,204.348 317.292,109.369 269.805,156.855"/>
	<polygon points="204.348,105.299 109.369,105.299 156.859,152.786"/>
	<polygon points="211.296,207.227 258.787,159.734 163.809,159.734"/>
	<polygon points="258.787,153.979 211.296,106.491 163.809,153.979"/>
	<polygon points="265.734,261.661 313.222,214.173 218.244,214.173"/>
	<polygon points="313.223,208.417 265.734,160.926 218.244,208.417"/>
	<polygon points="120.636,124.707 120.636,219.688 168.124,172.197"/>
	<polygon points="120.636,233.584 120.636,328.561 168.124,281.076"/>
	<polygon points="281.068,285.145 233.582,332.63 328.56,332.63"/>
	<polygon points="226.633,230.707 179.143,278.198 274.122,278.198"/>
	<polygon points="179.143,283.954 226.633,331.439 274.121,283.954"/>
	<polygon points="172.193,176.268 124.706,223.758 219.686,223.758"/>
	<polygon points="124.706,229.516 172.193,277.005 219.686,229.516"/>
</g>
</svg>
