<svg xmlns="http://www.w3.org/2000/svg" width="1024" height="1024" viewBox="-251.479 -251.485 1024 1024"><path d="M768.356 748.277l-61.354-61.351v-924.212a14.15 14.15 0 0 0-8.759-13.114 14.116 14.116 0 0 0-5.444-1.086c-3.792 0-7.36 1.477-10.039 4.16L460.293-24.85 237.8-247.323l-2.938-2.873h-1.251a13.958 13.958 0 0 0-5.848-1.28h-464.552a14.144 14.144 0 0 0-10.524 4.145 14.098 14.098 0 0 0-4.166 10.049c0 3.797 1.479 7.363 4.157 10.041l61.354 61.353v924.203c0 5.756 3.437 10.903 8.791 13.132a14.147 14.147 0 0 0 5.408 1.068c3.747 0 7.413-1.52 10.04-4.155L60.737 545.9l222.487 222.458 2.939 2.873h1.247a13.967 13.967 0 0 0 5.86 1.284h465.038c5.755 0 10.9-3.435 13.105-8.733a14.137 14.137 0 0 0-3.057-15.505zm-89.752-951.279v396.485L480.37-4.766l198.234-198.236zM40.66 60.757l-198.23 198.248v-396.49L40.66 60.757zM29.532 9.436h396.479l-198.25 198.246L29.532 9.436zm31.212 71.405l198.243 198.251h-396.481L60.744 80.841zM293.273 313.37l198.238 198.253H95.025L293.273 313.37zm-31.235-71.407h396.483L460.289 440.204 262.038 241.963zM480.37 460.282l198.232-198.236v396.485L480.37 460.282zm178.146-246.721H262.038L460.293 15.317l198.223 198.244zM426.013-18.965H29.522l198.236-198.237L426.013-18.965zm-629.009-204.111h396.47L-4.757-24.848l-198.239-198.228zm45.426 947.114V327.571l140.164 140.183 58.065 58.064-198.229 198.22zm20.076-416.55l396.481.001L60.739 505.738l-198.233-198.25zm430.761 430.749L95.02 540.021l396.483-.005-198.236 198.221zm34.288 5.882l198.236-198.221L724.03 744.117l-396.475.002z"/></svg>