<svg xmlns="http://www.w3.org/2000/svg" width="1024" height="1024" viewBox="-251.482 -251.478 1024 1024"><path d="M722.338 262.135l-218.97 209.879 218.97 209.892zM700.153 240.874H262.198l218.989 209.882zM700.148 210.803L481.19.916 262.198 210.803zM443.323-5.311H5.37l218.964 209.89zM722.338-230.225L503.368-20.347l218.97 209.894zM443.325-35.38L224.331-245.259 5.359-35.38zM186.46-251.478h-437.942L-32.506-41.607zM-201.304 258.917L17.662 49.025-201.304-160.86zM39.847 70.289l-218.973 209.894h437.955zM-179.127 310.247L39.841 520.14l218.986-209.892zM-201.304 331.509v419.752L17.66 541.399l-64.137-61.474zM515.675 526.369L296.699 316.474 77.714 526.369zM77.708 556.438l218.985 209.856 218.973-209.859zM334.568 772.521l437.95-.001-218.976-209.86z"/></svg>