<svg xmlns="http://www.w3.org/2000/svg" width="1024" height="1024" viewBox="-251.478 -251.484 1024 1024"><path fill="#00577B" d="M678.604 262.045L480.371 460.282 678.604 658.53z"/><path fill="#0079AA" d="M658.521 241.963H262.038L460.29 440.204z"/><path fill="#0096D3" d="M658.516 213.561L460.293 15.317 262.038 213.561z"/><path fill="#01B0F0" d="M426.011 9.436H29.532l198.229 198.246zM678.604-203.002L480.371-4.766l198.233 198.25z"/><path fill="#27BCF3" d="M426.013-18.965L227.758-217.202 29.522-18.965z"/><path fill="#4FC9F5" d="M193.473-223.076h-396.469L-4.757-24.848z"/><path fill="#79201B" d="M-157.57 259.006L40.66 60.757l-198.23-198.241z"/><path fill="#A42D26" d="M60.744 80.841l-198.237 198.251h396.482z"/><path fill="#CC382F" d="M-137.494 307.488l198.233 198.25 198.249-198.249z"/><path fill="#F0453F" d="M-157.57 327.571v396.467l198.228-198.22-58.064-58.064zM491.512 511.621L293.273 313.37 95.025 511.621z"/><path fill="#F2625D" d="M95.02 540.021l198.247 198.216L491.504 540.02z"/><path fill="#F47F7D" d="M327.555 744.119l396.478-.002-198.24-198.218z"/><path fill="#FFF" d="M768.356 748.277l-61.354-61.35v-924.212a14.15 14.15 0 0 0-8.758-13.114 14.125 14.125 0 0 0-5.445-1.086c-3.792 0-7.36 1.477-10.039 4.16L460.293-24.85 237.8-247.323l-2.938-2.873h-1.251a13.962 13.962 0 0 0-5.848-1.28h-464.552a14.144 14.144 0 0 0-10.524 4.145 14.098 14.098 0 0 0-4.166 10.049c0 3.797 1.478 7.363 4.157 10.041l61.354 61.353v924.202c0 5.756 3.436 10.904 8.791 13.132a14.14 14.14 0 0 0 5.408 1.069c3.747 0 7.413-1.52 10.04-4.156l222.466-222.46 222.487 222.458 2.939 2.873h1.247a13.975 13.975 0 0 0 5.861 1.285h465.038a14.16 14.16 0 0 0 13.106-8.734 14.14 14.14 0 0 0-3.059-15.504zm-89.752-951.279v396.485L480.371-4.766l198.233-198.236zM40.66 60.757l-198.23 198.248v-396.49L40.66 60.757zM29.532 9.436h396.48L227.761 207.682 29.532 9.436zm31.212 71.405l198.244 198.251h-396.482L60.744 80.841zM293.273 313.37l198.238 198.253H95.025L293.273 313.37zm-31.235-71.407h396.484L460.29 440.204 262.038 241.963zm218.333 218.319l198.232-198.236v396.485L480.371 460.282zm178.145-246.721H262.038L460.293 15.317l198.223 198.244zM426.013-18.965H29.522l198.236-198.237L426.013-18.965zm-629.009-204.111h396.47L-4.757-24.848l-198.239-198.228zm45.426 947.114V327.571l140.164 140.183 58.065 58.064-198.229 198.22zm20.076-416.55l396.482.001L60.739 505.738l-198.233-198.25zm430.761 430.749L95.02 540.021l396.483-.004-198.236 198.22zm34.288 5.882l198.236-198.221 198.24 198.219-396.476.002z"/></svg>