<svg xmlns="http://www.w3.org/2000/svg" width="1024" height="1024" viewBox="-251.479 -251.484 1024 1024"><path fill="#00577B" d="M678.604 262.045L480.371 460.282 678.604 658.53z"/><path fill="#0079AA" d="M658.52 241.963H262.038L460.29 440.204z"/><path fill="#0096D3" d="M658.515 213.561L460.292 15.317 262.038 213.561z"/><path fill="#01B0F0" d="M426.012 9.436H29.532l198.229 198.246zM678.604-203.002L480.371-4.766l198.233 198.25z"/><path fill="#27BCF3" d="M426.014-18.965L227.759-217.202 29.522-18.965z"/><path fill="#4FC9F5" d="M193.473-223.076h-396.469L-4.757-24.848z"/><path fill="#79201B" d="M-157.571 259.006L40.661 60.757l-198.232-198.241z"/><path fill="#A42D26" d="M60.745 80.841l-198.238 198.251h396.482z"/><path fill="#CC382F" d="M-137.494 307.488L60.74 505.738l198.248-198.249z"/><path fill="#F0453F" d="M-157.571 327.571v396.467l198.229-198.22-58.063-58.064zM491.511 511.621L293.274 313.37 95.026 511.621z"/><path fill="#F2625D" d="M95.021 540.021l198.247 198.216L491.503 540.02z"/><path fill="#F47F7D" d="M327.556 744.119l396.476-.002-198.24-198.218z"/><path fill="#464049" d="M768.356 748.277l-61.354-61.35v-924.212a14.15 14.15 0 0 0-8.757-13.114 14.12 14.12 0 0 0-5.444-1.086 14.1 14.1 0 0 0-10.041 4.16L460.292-24.85 237.8-247.323l-2.938-2.873h-1.251a13.965 13.965 0 0 0-5.848-1.28h-464.552a14.147 14.147 0 0 0-10.525 4.145 14.098 14.098 0 0 0-4.166 10.049 14.1 14.1 0 0 0 4.158 10.041l61.353 61.353v924.202c0 5.756 3.436 10.904 8.792 13.132a14.16 14.16 0 0 0 5.408 1.069c3.747 0 7.412-1.52 10.041-4.157L60.74 545.899l222.487 222.458 2.939 2.873h1.246a13.979 13.979 0 0 0 5.861 1.285h465.038a14.159 14.159 0 0 0 13.106-8.735 14.146 14.146 0 0 0-3.061-15.503zm-89.752-951.279v396.485L480.371-4.766l198.233-198.236zM40.661 60.757L-157.57 259.005v-396.49L40.661 60.757zM29.532 9.436h396.48l-198.25 198.246L29.532 9.436zm31.213 71.405l198.244 198.251h-396.482L60.745 80.841zM293.274 313.37l198.238 198.252H95.026L293.274 313.37zm-31.236-71.407h396.483L460.29 440.204 262.038 241.963zm218.333 218.319l198.233-198.237V658.53L480.371 460.282zm178.144-246.721H262.038L460.292 15.317l198.223 198.244zM426.014-18.965H29.522l198.236-198.237L426.014-18.965zm-629.01-204.111h396.47L-4.757-24.848l-198.239-198.228zm45.425 947.114V327.571l140.165 140.183 58.063 58.064-198.228 198.22zm20.077-416.55l396.483.001L60.74 505.738l-198.234-198.25zm430.762 430.749L95.021 540.021l396.482-.003-198.235 198.219zm34.288 5.882l198.236-198.221 198.24 198.219-396.476.002z"/></svg>