<svg xmlns="http://www.w3.org/2000/svg" width="1024" height="1024" viewBox="-226.035 -226.037 1024 1024"><path d="M722.221 715.895V263.379L562.24 423.363l-66.266 66.269zM495.974 15.5l88.471 88.483 137.776 137.783v-452.515zM-210.747-217.073L15.509 9.169l226.245-226.242zM252.57 246.24L478.837 19.98H26.327zM252.573-215.22L26.316 11.024h452.525zM26.312 11.026l226.25-226.248zM263.373 257.049l226.272 226.256 66.265-66.273 159.977-159.983zM489.645 483.305l66.268-66.271-66.268 66.271zM263.377 248.092h452.502L566.323 98.522l-76.674-76.685z"/><path d="M715.887 248.092L566.323 98.522l149.556 149.57zM-150.29-143.953v452.521L75.953 82.304zM75.953 556.447L9.685 490.179-150.29 330.185V782.68zM330.171 789.012H782.68L556.423 562.779zM93.099 551.974h452.516L319.362 325.707zM319.356 787.157l226.253-226.231H93.091zM-143.962 314.903h452.511L82.29 88.637zM-143.962 323.854L82.284 550.118l226.265-226.264zM82.249 550.101l-226.252-226.249z"/></svg>