<svg xmlns="http://www.w3.org/2000/svg" width="1023.999" height="1024" viewBox="-226.034 -226.035 1023.999 1024"><path fill="#00577B" d="M722.221 715.889V263.375L562.24 423.363l-66.265 66.264z"/><path fill="#01B0F0" d="M495.975 15.497l88.471 88.484 137.775 137.783v-452.513z"/><path fill="#4FC9F5" d="M-210.746-217.073L15.508 9.167l226.244-226.24z"/><path fill="#01B0F0" d="M252.569 246.238L478.838 19.979H26.328z"/><path fill="#27BCF3" d="M252.573-215.22L26.317 11.023h452.525zM26.313 11.025l226.248-226.247z"/><path fill="#0079AA" d="M263.375 257.045l226.266 226.252 66.269-66.268 159.979-159.984zM489.641 483.297l66.271-66.27-66.271 66.27z"/><path fill="#0096D3" d="M263.379 248.09h452.502L566.323 98.52l-76.678-76.685z"/><path fill="#0096D3" d="M715.889 248.09L566.323 98.52l149.558 149.57z"/><path fill="#79201B" d="M-150.291-143.953v452.519L75.953 82.301z"/><path fill="#F0453F" d="M75.953 556.447L9.686 490.176l-159.977-159.99v452.492z"/><path fill="#F47F7D" d="M330.172 789.008H782.68L556.424 562.777z"/><path fill="#F0453F" d="M93.102 551.973h452.513l-226.251-226.27z"/><path fill="#F2625D" d="M319.358 787.156L545.61 560.924H93.094z"/><path fill="#A42D26" d="M-143.959 314.902h452.51L82.291 88.635z"/><path fill="#CC382F" d="M-143.959 323.852L82.285 550.115l226.266-226.263zM82.25 550.1l-226.252-226.248z"/></svg>