<?xml version="1.0" encoding="utf-8"?>
<!DOCTYPE svg PUBLIC "-//W3C//DTD SVG 1.1//EN" "http://www.w3.org/Graphics/SVG/1.1/DTD/svg11.dtd">
<svg version="1.1" id="Logo" xmlns="http://www.w3.org/2000/svg" xmlns:xlink="http://www.w3.org/1999/xlink" x="0px" y="0px"
	 width="1024px" height="1024px" viewBox="-251.483 -251.484 1024 1024" enable-background="new -251.483 -251.484 1024 1024"
	 xml:space="preserve">
<path id="outline-stroke" d="M769.912,757.365l-63.61-63.604V227.408v-470.017c0-3.589-2.163-6.826-5.474-8.2
	c-3.318-1.374-7.136-0.612-9.677,1.925L462.423-20.159l-228.74-228.725h-0.033c-1.631-1.624-3.856-2.601-6.247-2.601H-242.61
	c-3.587,0-6.827,2.162-8.201,5.479c-1.369,3.317-0.612,7.134,1.925,9.671l63.614,63.61v466.358v470c0,3.59,2.161,6.831,5.479,8.199
	c1.098,0.455,2.249,0.682,3.393,0.682c2.309,0,4.58-0.902,6.278-2.599L58.604,541.203l228.738,228.714h0.036
	c1.632,1.622,3.854,2.599,6.246,2.599h470.02c3.589,0,6.825-2.169,8.199-5.479C773.217,763.72,772.449,759.902,769.912,757.365z
	 M462.425,4.943l213.58,213.593H248.834L399.858,67.507L462.425,4.943z M272.193,284.76h-427.165L58.604,71.168L272.193,284.76z
	 M248.834,236.284h427.167L462.425,449.859L248.834,236.284z M-154.972,302.512h427.161L58.602,516.104l-82.993-82.994
	L-154.972,302.512z M474.978,462.411l213.576-213.576v427.166L474.978,462.411z M334.208,108.061L227.407,214.856L13.829,1.267H441
	L334.208,108.061z M-130.26,234.943l-37.263,37.265v-427.179L46.052,58.62L-130.26,234.943z M293.616,306.187l213.579,213.592
	H80.029L293.616,306.187z M688.554,205.982L474.978-7.608l213.576-213.577V205.982z M13.829-16.483l151.023-151.023l62.555-62.555
	L441-16.483H13.829z M205.982-233.735L54.957-82.713L-7.595-20.159l-213.591-213.576H205.982z M-167.522,742.214V315.062
	L46.052,528.655L-167.522,742.214z M507.195,537.527l-69.723,69.716L293.616,751.091L80.029,537.527H507.195z M315.047,754.767
	l69.723-69.72l143.856-143.844l213.587,213.563H315.047z"/>
</svg>
