<?xml version="1.0" encoding="utf-8"?>
<!DOCTYPE svg PUBLIC "-//W3C//DTD SVG 1.1//EN" "http://www.w3.org/Graphics/SVG/1.1/DTD/svg11.dtd">
<svg version="1.1" id="Logo" xmlns="http://www.w3.org/2000/svg" xmlns:xlink="http://www.w3.org/1999/xlink" x="0px" y="0px"
	 width="1024px" height="1024px" viewBox="-251.483 -251.484 1024 1024" enable-background="new -251.483 -251.484 1024 1024"
	 xml:space="preserve">
<polygon fill="#00577B" points="688.554,676.001 688.554,248.835 474.978,462.411 "/>
<polygon fill="#0079AA" points="462.427,449.859 676.003,236.284 248.834,236.284 "/>
<polygon fill="#0096D3" points="676.006,218.536 462.427,4.943 399.858,67.507 248.834,218.536 "/>
<polygon fill="#01B0F0" points="227.407,214.856 334.208,108.061 441,1.267 13.829,1.267 "/>
<polygon fill="#01B0F0" points="688.554,205.982 688.554,-221.185 474.978,-7.608 "/>
<polygon fill="#27BCF3" points="441,-16.483 227.407,-230.061 164.852,-167.506 13.829,-16.483 "/>
<polygon fill="#4FC9F5" points="205.982,-233.735 -221.187,-233.735 -7.595,-20.159 54.957,-82.713 "/>
<polygon fill="#79201B" points="-167.522,-154.971 -167.522,272.208 -130.26,234.943 46.052,58.62 "/>
<polygon fill="#A42D26" points="58.604,71.168 -154.972,284.76 272.193,284.76 "/>
<polygon fill="#CC382F" points="-154.972,302.512 -24.391,433.11 58.602,516.104 272.189,302.512 "/>
<polygon fill="#F0453F" points="-167.522,315.062 -167.522,742.214 46.052,528.655 "/>
<polygon fill="#F0453F" points="293.616,306.187 80.029,519.778 507.195,519.778 "/>
<polygon fill="#F2625D" points="80.029,537.527 293.616,751.091 437.472,607.243 507.195,537.527 "/>
<polygon fill="#F47F7D" points="384.769,685.047 315.047,754.767 742.213,754.767 528.626,541.203 "/>
</svg>
