<?xml version="1.0" encoding="utf-8"?>
<!DOCTYPE svg PUBLIC "-//W3C//DTD SVG 1.1//EN" "http://www.w3.org/Graphics/SVG/1.1/DTD/svg11.dtd">
<svg version="1.1" id="Logo" xmlns="http://www.w3.org/2000/svg" xmlns:xlink="http://www.w3.org/1999/xlink" x="0px" y="0px"
	 width="571.929px" height="571.929px" viewBox="0 0 571.929 571.929" enable-background="new 0 0 571.929 571.929"
	 xml:space="preserve">
<path fill="#231F20" d="M571.197,567.662l-36.572-36.568V267.312V2.5c0-1.011-0.609-1.923-1.543-2.31
	c-0.937-0.388-2.01-0.173-2.725,0.542L399.722,131.367L269.08,0.732h-0.008C268.612,0.275,267.986,0,267.312,0H2.5
	C1.489,0,0.577,0.609,0.19,1.543c-0.387,0.934-0.173,2.009,0.542,2.724l36.572,36.569v263.788v264.805
	c0,1.011,0.609,1.923,1.543,2.31c0.309,0.128,0.634,0.19,0.956,0.19c0.65,0,1.29-0.254,1.768-0.732L172.206,440.57l130.643,130.627
	h0.008c0.46,0.457,1.086,0.732,1.76,0.732h264.812c1.011,0,1.923-0.609,2.31-1.543C572.125,569.452,571.912,568.376,571.197,567.662
	z M529.625,8.536v252.741L403.257,134.902L529.625,8.536z M89.038,258.923l83.168-83.174l126.375,126.375H45.839L89.038,258.923z
	 M42.304,298.588V45.839l126.367,126.375L42.304,298.588z M273.348,269.812h252.742L399.722,396.179L273.348,269.812z
	 M529.625,273.348v252.741L403.257,399.714L529.625,273.348z M526.089,264.812H273.348l126.375-126.375L526.089,264.812z
	 M267.312,263.776L140.945,137.402h252.742L267.312,263.776z M393.686,132.402h-252.74L267.312,6.036L393.686,132.402z M8.536,5
	h252.741L134.91,131.366L8.536,5z M42.304,563.394V310.661L168.67,437.035L42.304,563.394z M45.839,307.125h252.742l-89.363,89.362
	L172.206,433.5L45.839,307.125z M304.617,308.16l126.367,126.375H178.242L304.617,308.16z M178.242,439.535h252.741L304.617,565.894
	L178.242,439.535z M310.653,566.929L437.019,440.57l126.374,126.359H310.653z"/>
</svg>
