<svg xmlns="http://www.w3.org/2000/svg" width="1024" height="1024" viewBox="-251.483 -251.484 1024 1024"><path fill="#464049" d="M769.912 757.365l-63.61-63.604v-936.37a8.88 8.88 0 0 0-5.474-8.2 8.886 8.886 0 0 0-9.677 1.925L462.423-20.159l-228.74-228.725h-.033a8.856 8.856 0 0 0-6.247-2.601H-242.61a8.88 8.88 0 0 0-8.201 5.479 8.884 8.884 0 0 0 1.925 9.671l63.614 63.61v936.358a8.866 8.866 0 0 0 5.479 8.199 8.857 8.857 0 0 0 3.393.682c2.309 0 4.58-.902 6.278-2.599L58.604 541.203l228.738 228.714h.036c1.632 1.622 3.854 2.599 6.246 2.599h470.02a8.885 8.885 0 0 0 8.199-5.479 8.878 8.878 0 0 0-1.931-9.672zM462.425 4.943l213.58 213.593H248.834L399.858 67.507l62.567-62.564zM272.193 284.76h-427.165L58.604 71.168 272.193 284.76zm-23.359-48.476h427.167L462.425 449.859 248.834 236.284zm-403.806 66.228h427.161L58.602 516.104l-82.993-82.994-130.581-130.598zm629.95 159.899l213.576-213.576v427.166l-213.576-213.59zm-140.77-354.35L227.407 214.856 13.829 1.267H441L334.208 108.061zM-130.26 234.943l-37.263 37.265v-427.179L46.052 58.62-130.26 234.943zm423.876 71.244l213.579 213.592H80.029l213.587-213.592zm394.938-100.205L474.978-7.608l213.576-213.577v427.167zM13.829-16.483l151.023-151.023 62.555-62.555L441-16.483H13.829zm192.153-217.252L54.957-82.713-7.595-20.159l-213.591-213.576h427.168zm-373.504 975.949V315.062L46.052 528.655l-213.574 213.559zm674.717-204.687l-69.723 69.716-143.856 143.848L80.029 537.527h427.166zm-192.148 217.24l69.723-69.72 143.856-143.844 213.587 213.563H315.047z"/><path fill="#00577B" d="M688.554 676.001V248.835L474.978 462.411z"/><path fill="#0079AA" d="M462.427 449.859l213.576-213.575H248.834z"/><path fill="#0096D3" d="M676.006 218.536L462.427 4.943l-62.569 62.564-151.024 151.029z"/><path fill="#01B0F0" d="M227.407 214.856l106.801-106.795L441 1.267H13.829zM688.554 205.982v-427.167L474.978-7.608z"/><path fill="#27BCF3" d="M441-16.483L227.407-230.061l-62.555 62.555L13.829-16.483z"/><path fill="#4FC9F5" d="M205.982-233.735h-427.169L-7.595-20.159l62.552-62.554z"/><path fill="#79201B" d="M-167.522-154.971v427.179l37.262-37.265L46.052 58.62z"/><path fill="#A42D26" d="M58.604 71.168L-154.972 284.76h427.165z"/><path fill="#CC382F" d="M-154.972 302.512L-24.391 433.11l82.993 82.994 213.587-213.592z"/><path fill="#F0453F" d="M-167.522 315.062v427.152L46.052 528.655zM293.616 306.187L80.029 519.778h427.166z"/><path fill="#F2625D" d="M80.029 537.527l213.587 213.564 143.856-143.848 69.723-69.716z"/><path fill="#F47F7D" d="M384.769 685.047l-69.722 69.72h427.166L528.626 541.203z"/></svg>