<svg xmlns="http://www.w3.org/2000/svg" width="1024" height="1024" viewBox="-251.483 -251.484 1024 1024"><path fill="#00577B" d="M688.554 676.001V248.835L474.978 462.411z"/><path fill="#0079AA" d="M462.427 449.859l213.576-213.575H248.834z"/><path fill="#0096D3" d="M676.006 218.536L462.427 4.943l-62.569 62.564-151.024 151.029z"/><path fill="#01B0F0" d="M227.407 214.856l106.801-106.795L441 1.267H13.829zM688.554 205.982v-427.167L474.978-7.608z"/><path fill="#27BCF3" d="M441-16.483L227.407-230.061l-62.555 62.555L13.829-16.483z"/><path fill="#4FC9F5" d="M205.982-233.735h-427.169L-7.595-20.159l62.552-62.554z"/><path fill="#79201B" d="M-167.522-154.971v427.179l37.262-37.265L46.052 58.62z"/><path fill="#A42D26" d="M58.604 71.168L-154.972 284.76h427.165z"/><path fill="#CC382F" d="M-154.972 302.512L-24.391 433.11l82.993 82.994 213.587-213.592z"/><path fill="#F0453F" d="M-167.522 315.062v427.152L46.052 528.655zM293.616 306.187L80.029 519.778h427.166z"/><path fill="#F2625D" d="M80.029 537.527l213.587 213.564 143.856-143.848 69.723-69.716z"/><path fill="#F47F7D" d="M384.769 685.047l-69.722 69.72h427.166L528.626 541.203z"/></svg>