<?xml version="1.0" encoding="utf-8"?>
<!DOCTYPE svg PUBLIC "-//W3C//DTD SVG 1.1//EN" "http://www.w3.org/Graphics/SVG/1.1/DTD/svg11.dtd">
<svg version="1.1" id="Logo" xmlns="http://www.w3.org/2000/svg" xmlns:xlink="http://www.w3.org/1999/xlink" x="0px" y="0px"
	 width="1024px" height="1024px" viewBox="-251.479 -251.485 1024 1024" enable-background="new -251.479 -251.485 1024 1024"
	 xml:space="preserve">
<path d="M768.356,748.277l-61.354-61.351v-924.212c0-5.765-3.442-10.915-8.759-13.114c-1.735-0.721-3.567-1.086-5.444-1.086
	c-3.792,0-7.36,1.477-10.039,4.16L460.293-24.85L237.8-247.323l-2.938-2.873h-1.251c-1.82-0.838-3.807-1.28-5.848-1.28h-464.552
	c-3.946-0.132-7.714,1.343-10.524,4.145c-2.687,2.681-4.166,6.249-4.166,10.049c0,3.797,1.479,7.363,4.157,10.041l61.354,61.353
	v924.203c0,5.756,3.437,10.903,8.791,13.132c1.729,0.711,3.548,1.068,5.408,1.068c3.747,0,7.413-1.52,10.04-4.155l222.466-222.46
	l222.487,222.458l2.939,2.873h1.247c1.824,0.841,3.814,1.284,5.86,1.284h465.038c5.755,0,10.9-3.435,13.105-8.733
	C773.644,758.453,772.444,752.37,768.356,748.277z M678.604-203.002v396.485L480.37-4.766L678.604-203.002z M40.66,60.757
	l-198.23,198.248v-396.49L40.66,60.757z M29.532,9.436h396.479L227.761,207.682L29.532,9.436z M60.744,80.841l198.243,198.251
	h-396.481L60.744,80.841z M293.273,313.37l198.238,198.253H95.025L293.273,313.37z M262.038,241.963h396.483L460.289,440.204
	L262.038,241.963z M480.37,460.282l198.232-198.236v396.485L480.37,460.282z M658.516,213.561H262.038L460.293,15.317
	L658.516,213.561z M426.013-18.965H29.522l198.236-198.237L426.013-18.965z M-202.996-223.076h396.47L-4.757-24.848
	L-202.996-223.076z M-157.57,724.038V327.571l140.164,140.183l58.065,58.064L-157.57,724.038z M-137.494,307.488l396.481,0.001
	L60.739,505.738L-137.494,307.488z M293.267,738.237L95.02,540.021l396.483-0.005L293.267,738.237z M327.555,744.119
	l198.236-198.221l198.239,198.219L327.555,744.119z"/>
</svg>
