<?xml version="1.0" encoding="utf-8"?>
<!DOCTYPE svg PUBLIC "-//W3C//DTD SVG 1.1//EN" "http://www.w3.org/Graphics/SVG/1.1/DTD/svg11.dtd">
<svg version="1.1" id="Logo" xmlns="http://www.w3.org/2000/svg" xmlns:xlink="http://www.w3.org/1999/xlink" x="0px" y="0px"
	 width="1024px" height="1024px" viewBox="-251.478 -251.484 1024 1024" enable-background="new -251.478 -251.484 1024 1024"
	 xml:space="preserve">
<polygon fill="#00577B" points="678.604,262.045 480.371,460.282 678.604,658.53 "/>
<polygon fill="#0079AA" points="658.521,241.963 262.038,241.963 460.29,440.204 "/>
<polygon fill="#0096D3" points="658.516,213.561 460.293,15.317 262.038,213.561 "/>
<polygon fill="#01B0F0" points="426.011,9.436 29.532,9.436 227.761,207.682 "/>
<polygon fill="#01B0F0" points="678.604,-203.002 480.371,-4.766 678.604,193.484 "/>
<polygon fill="#27BCF3" points="426.013,-18.965 227.758,-217.202 29.522,-18.965 "/>
<polygon fill="#4FC9F5" points="193.473,-223.076 -202.996,-223.076 -4.757,-24.848 "/>
<polygon fill="#79201B" points="-157.57,259.006 40.66,60.757 -157.57,-137.484 "/>
<polygon fill="#A42D26" points="60.744,80.841 -137.493,279.092 258.989,279.092 "/>
<polygon fill="#CC382F" points="-137.494,307.488 60.739,505.738 258.988,307.489 "/>
<polygon fill="#F0453F" points="-157.57,327.571 -157.57,724.038 40.658,525.818 -17.406,467.754 "/>
<polygon fill="#F0453F" points="491.512,511.621 293.273,313.37 95.025,511.621 "/>
<polygon fill="#F2625D" points="95.02,540.021 293.267,738.237 491.504,540.02 "/>
<polygon fill="#F47F7D" points="327.555,744.119 724.033,744.117 525.793,545.899 "/>
<path fill="#FFFFFF" d="M768.356,748.277l-61.354-61.35v-924.212c0-5.765-3.442-10.915-8.758-13.114
	c-1.736-0.721-3.568-1.086-5.445-1.086c-3.792,0-7.36,1.477-10.039,4.16L460.293-24.85L237.8-247.323l-2.938-2.873h-1.251
	c-1.821-0.838-3.807-1.28-5.848-1.28h-464.552c-3.946-0.132-7.714,1.343-10.524,4.145c-2.687,2.681-4.166,6.249-4.166,10.049
	c0,3.797,1.478,7.363,4.157,10.041l61.354,61.353v924.202c0,5.756,3.436,10.904,8.791,13.132c1.728,0.711,3.547,1.069,5.408,1.069
	c3.747,0,7.413-1.52,10.04-4.156l222.466-222.46l222.487,222.458l2.939,2.873h1.247c1.825,0.841,3.815,1.285,5.861,1.285h465.038
	c5.755,0,10.901-3.435,13.106-8.734C773.644,758.453,772.444,752.37,768.356,748.277z M678.604-203.002v396.485L480.371-4.766
	L678.604-203.002z M40.66,60.757l-198.23,198.248v-396.49L40.66,60.757z M29.532,9.436h396.48L227.761,207.682L29.532,9.436z
	 M60.744,80.841l198.244,198.251h-396.482L60.744,80.841z M293.273,313.37l198.238,198.253H95.025L293.273,313.37z M262.038,241.963
	h396.484L460.29,440.204L262.038,241.963z M480.371,460.282l198.232-198.236v396.485L480.371,460.282z M658.516,213.561H262.038
	L460.293,15.317L658.516,213.561z M426.013-18.965H29.522l198.236-198.237L426.013-18.965z M-202.996-223.076h396.47L-4.757-24.848
	L-202.996-223.076z M-157.57,724.038V327.571l140.164,140.183l58.065,58.064L-157.57,724.038z M-137.494,307.488l396.482,0.001
	L60.739,505.738L-137.494,307.488z M293.267,738.237L95.02,540.021l396.483-0.004L293.267,738.237z M327.555,744.119
	l198.236-198.221l198.24,198.219L327.555,744.119z"/>
</svg>
