<?xml version="1.0" encoding="utf-8"?>
<!DOCTYPE svg PUBLIC "-//W3C//DTD SVG 1.1//EN" "http://www.w3.org/Graphics/SVG/1.1/DTD/svg11.dtd">
<svg version="1.1" id="Logo" xmlns="http://www.w3.org/2000/svg" xmlns:xlink="http://www.w3.org/1999/xlink" x="0px" y="0px"
	 width="1024px" height="1024px" viewBox="-251.482 -251.479 1024 1024" enable-background="new -251.482 -251.479 1024 1024"
	 xml:space="preserve">
<polygon fill="#00577B" points="722.337,262.135 503.367,472.015 722.337,681.907 "/>
<polygon fill="#0079AA" points="700.153,240.874 262.197,240.874 481.187,450.757 "/>
<polygon fill="#0096D3" points="700.148,210.803 481.19,0.916 262.197,210.803 "/>
<polygon fill="#01B0F0" points="443.323,-5.311 5.369,-5.311 224.335,204.579 "/>
<polygon fill="#01B0F0" points="722.337,-230.225 503.367,-20.347 722.337,189.547 "/>
<polygon fill="#27BCF3" points="443.324,-35.38 224.332,-245.259 5.359,-35.38 "/>
<polygon fill="#4FC9F5" points="186.46,-251.479 -251.482,-251.479 -32.506,-41.608 "/>
<polygon fill="#79201B" points="-201.304,258.917 17.663,49.025 -201.304,-160.86 "/>
<polygon fill="#A42D26" points="39.848,70.289 -179.127,280.183 258.829,280.183 "/>
<polygon fill="#CC382F" points="-179.128,310.247 39.842,520.139 258.828,310.248 "/>
<polygon fill="#F0453F" points="-201.304,331.509 -201.304,751.261 17.66,541.4 -46.477,479.925 "/>
<polygon fill="#F0453F" points="515.674,526.369 296.7,316.474 77.714,526.369 "/>
<polygon fill="#F2625D" points="77.709,556.437 296.694,766.294 515.665,556.435 "/>
<polygon fill="#F47F7D" points="334.567,772.521 772.518,772.519 553.541,562.662 "/>
</svg>
