<?xml version="1.0" encoding="utf-8"?>
<!DOCTYPE svg PUBLIC "-//W3C//DTD SVG 1.1//EN" "http://www.w3.org/Graphics/SVG/1.1/DTD/svg11.dtd">
<svg version="1.1" id="Logo" xmlns="http://www.w3.org/2000/svg" xmlns:xlink="http://www.w3.org/1999/xlink" x="0px" y="0px" width="571.929px" height="571.929px" viewBox="0 0 571.929 571.929" enable-background="new 0 0 571.929 571.929" xml:space="preserve">
<polygon fill="#00577B" stroke="#FFFFFF" stroke-width="5" stroke-linejoin="bevel" stroke-miterlimit="10" points="532.125,267.312 399.722,399.714 532.125,532.125 "/>
<polygon fill="#01B0F0" stroke="#FFFFFF" stroke-width="5" stroke-linejoin="round" stroke-miterlimit="10" points="532.125,2.5,399.722,134.902 532.125,267.312 "/>
<polygon fill="#4FC9F5" stroke="#FFFFFF" stroke-width="5" stroke-linejoin="round" stroke-miterlimit="10" points="2.5,2.5,134.91,134.902 267.312,2.5 "/>
<polygon fill="#01B0F0" stroke="#FFFFFF" stroke-width="5" stroke-linejoin="bevel" stroke-miterlimit="10" points="134.91,134.902,267.312,267.312 399.722,134.902 "/>
<polygon fill="#27BCF3" stroke="#FFFFFF" stroke-width="5" stroke-linejoin="bevel" stroke-miterlimit="10" points="399.722,134.902 267.312,2.5 134.91,134.902 "/>
<polygon fill="#0079AA" stroke="#FFFFFF" stroke-width="5" stroke-linejoin="bevel" stroke-miterlimit="10" points="267.312,267.312 399.722,399.714 532.125,267.312 "/>
<polygon fill="#0096D3" stroke="#FFFFFF" stroke-width="5" stroke-linejoin="bevel" stroke-miterlimit="10" points="532.125,267.312 399.722,134.902 267.312,267.312 "/>
<polygon fill="#79201B" stroke="#FFFFFF" stroke-width="5" stroke-linejoin="bevel" stroke-miterlimit="10" points="39.804,304.625,172.206,172.214 39.804,39.804 "/>
<polygon fill="#F0453F" stroke="#FFFFFF" stroke-width="5" stroke-linejoin="round" stroke-miterlimit="10" points="39.804,569.429,172.206,437.035 39.804,304.625 "/>
<polygon fill="#F47F7D" stroke="#FFFFFF" stroke-width="5" stroke-linejoin="round" stroke-miterlimit="10" points="569.429,569.429 437.019,437.035 304.616,569.429 "/>
<polygon fill="#F0453F" stroke="#FFFFFF" stroke-width="5" stroke-linejoin="bevel" stroke-miterlimit="10" points="437.019,437.035 304.616,304.625 172.206,437.035 "/>
<polygon fill="#F2625D" stroke="#FFFFFF" stroke-width="5" stroke-linejoin="bevel" stroke-miterlimit="10" points="172.206,437.035 304.616,569.429 437.019,437.035 "/>
<polygon fill="#A42D26" stroke="#FFFFFF" stroke-width="5" stroke-linejoin="bevel" stroke-miterlimit="10" points="304.616,304.625 172.206,172.214 39.804,304.625 "/>
<polygon fill="#CC382F" stroke="#FFFFFF" stroke-width="5" stroke-linejoin="bevel" stroke-miterlimit="10" points="39.804,304.625,172.206,437.035 304.616,304.625 "/>
</svg>
