<?xml version="1.0" encoding="utf-8"?>
<!DOCTYPE svg PUBLIC "-//W3C//DTD SVG 1.1//EN" "http://www.w3.org/Graphics/SVG/1.1/DTD/svg11.dtd">
<svg version="1.1" id="Layer_1" xmlns="http://www.w3.org/2000/svg" xmlns:xlink="http://www.w3.org/1999/xlink" x="0px" y="0px"
	 width="1024px" height="1024px" viewBox="-226.035 -226.037 1024 1024" enable-background="new -226.035 -226.037 1024 1024"
	 xml:space="preserve">
<polygon fill="#00577B" points="722.221,715.895 722.221,263.379 562.24,423.363 495.974,489.632 "/>
<polygon fill="#01B0F0" points="495.974,15.5 584.445,103.983 722.221,241.766 722.221,-210.749 "/>
<polygon fill="#4FC9F5" points="-210.747,-217.073 15.509,9.169 241.754,-217.073 "/>
<polygon fill="#01B0F0" points="252.57,246.24 478.837,19.98 26.327,19.98 "/>
<polygon fill="#27BCF3" points="252.573,-215.22 26.316,11.024 478.841,11.024 "/>
<polygon fill="#27BCF3" points="26.312,11.026 252.562,-215.222 252.562,-215.222 "/>
<polygon fill="#0079AA" points="263.373,257.049 489.645,483.305 555.91,417.032 715.887,257.049 "/>
<path fill="#0079AA" d="M489.645,483.305l66.268-66.271L489.645,483.305z"/>
<polygon fill="#0096D3" points="263.377,248.092 715.879,248.092 566.323,98.522 489.649,21.837 "/>
<polygon fill="#0096D3" points="715.887,248.092 566.323,98.522 715.879,248.092 "/>
<polygon fill="#79201B" points="-150.29,-143.953 -150.29,308.568 75.953,82.304 "/>
<polygon fill="#F0453F" points="75.953,556.447 9.685,490.179 -150.29,330.185 -150.29,782.68 "/>
<polygon fill="#F47F7D" points="330.171,789.012 782.68,789.012 556.423,562.779 "/>
<polygon fill="#F0453F" points="93.099,551.974 545.615,551.974 319.362,325.707 "/>
<polygon fill="#F2625D" points="319.356,787.157 545.609,560.926 93.091,560.926 "/>
<polygon fill="#A42D26" points="-143.962,314.903 308.549,314.903 82.29,88.637 "/>
<polygon fill="#CC382F" points="-143.962,323.854 82.284,550.118 308.549,323.854 "/>
<polygon fill="#CC382F" points="82.249,550.101 -144.003,323.852 -144.003,323.852 "/>
<path fill="#464049" d="M796.656,790.322l-65.483-65.476v-472.27v-0.007v-474.128c0-1.81-1.092-3.444-2.764-4.136
	c-1.676-0.696-3.603-0.308-4.879,0.97L489.645,9.167L255.734-224.722h-0.067c-0.816-0.8-1.904-1.305-3.096-1.305h-473.867
	c-1.241-0.083-2.486,0.365-3.428,1.305c-0.877,0.875-1.311,2.017-1.311,3.166c0,1.147,0.436,2.292,1.311,3.166l65.48,65.48v472.29
	v474.105c0,1.812,1.094,3.444,2.766,4.138c0.555,0.229,1.137,0.34,1.711,0.34c1.164,0,2.311-0.453,3.166-1.311L82.284,562.779
	l233.906,233.873h0.067c0.819,0.804,1.912,1.311,3.104,1.311h474.125c1.812,0,3.439-1.09,4.136-2.762
	C798.32,793.527,797.932,791.601,796.656,790.322z M330.171,789.012L556.423,562.78l226.259,226.23L330.171,789.012L330.171,789.012
	z M75.953,556.447L-150.29,782.68V330.185L9.685,490.179L75.953,556.447z M495.974,15.5l226.247-226.249v452.515L584.447,103.981
	L495.974,15.5z M715.879,248.092H263.377h-0.004L489.645,21.833l0.004,0.004l76.676,76.686l149.562,149.573h-0.008V248.092z
	 M252.57,246.24L26.327,19.98h452.51L252.57,246.24z M82.29,88.637l226.259,226.266h-452.511L82.29,88.637z M263.373,257.049
	h452.514L555.91,417.032l-66.268,66.271L263.373,257.049z M319.362,325.707l226.253,226.267H93.099L319.362,325.707z
	 M308.549,323.854L82.284,550.118l-226.247-226.265L308.549,323.854L308.549,323.854z M722.221,715.895L495.974,489.632
	l66.269-66.271L722.22,263.38L722.221,715.895L722.221,715.895z M26.316,11.024l226.251-226.25l0.006,0.006L478.841,11.024H26.316z
	 M-150.29-143.953L75.955,82.304L-150.29,308.568V-143.953z M545.609,560.926L319.356,787.157L93.091,560.928L545.609,560.926
	L545.609,560.926z M-210.747-217.073h452.501L15.509,9.169L-210.747-217.073z"/>
</svg>
