<?xml version="1.0" encoding="utf-8"?>
<!DOCTYPE svg PUBLIC "-//W3C//DTD SVG 1.1//EN" "http://www.w3.org/Graphics/SVG/1.1/DTD/svg11.dtd">
<svg version="1.1" id="Logo" xmlns="http://www.w3.org/2000/svg" xmlns:xlink="http://www.w3.org/1999/xlink" x="0px" y="0px"
	 width="521.033px" height="521.031px" viewBox="0 0 521.033 521.031" enable-background="new 0 0 521.033 521.031"
	 xml:space="preserve">
<path id="outline-stroke" fill="#464049" d="M519.708,513.322l-32.367-32.362V243.67V4.516c0-1.826-1.1-3.473-2.785-4.172
	c-1.688-0.699-3.631-0.312-4.924,0.979l-116.381,116.38L246.863,1.323h-0.017C246.016,0.497,244.885,0,243.668,0H4.515
	C2.69,0,1.042,1.1,0.343,2.788c-0.697,1.688-0.312,3.63,0.979,4.921l32.368,32.366v237.292v239.146c0,1.826,1.1,3.475,2.788,4.172
	c0.559,0.231,1.145,0.346,1.727,0.346c1.175,0,2.33-0.459,3.194-1.322l116.38-116.374l116.387,116.374h0.018
	c0.83,0.825,1.961,1.322,3.178,1.322h239.156c1.826,0,3.473-1.103,4.172-2.788C521.389,516.556,520.999,514.613,519.708,513.322z
	 M363.251,130.475l108.674,108.68H254.572l76.845-76.846L363.251,130.475z M266.458,272.852H49.107l108.672-108.68L266.458,272.852z
	 M254.572,248.186h217.351L363.251,356.857L254.572,248.186z M49.107,281.884h217.349L157.778,390.564l-42.228-42.229
	L49.107,281.884z M369.639,363.244l108.672-108.672v217.351L369.639,363.244z M298.012,182.944l-54.342,54.339L134.997,128.605
	H352.35L298.012,182.944z M61.681,247.504l-18.96,18.961V49.108l108.671,108.679L61.681,247.504z M277.358,283.754l108.674,108.68
	H168.68L277.358,283.754z M478.311,232.768L369.639,124.089L478.311,15.417V232.768z M134.997,119.573l76.844-76.843l31.829-31.829
	l108.68,108.672H134.997z M232.768,9.031l-76.844,76.843l-31.829,31.829L15.416,9.031H232.768z M42.721,505.613V288.27
	L151.392,396.95L42.721,505.613z M386.032,401.465l-35.477,35.473l-73.197,73.192L168.68,401.465H386.032z M288.262,512
	l35.477-35.475l73.197-73.19L505.614,512H288.262z"/>
<polygon fill="#00577B" points="478.311,471.923 478.311,254.572 369.639,363.244 "/>
<polygon fill="#0079AA" points="363.252,356.857 471.924,248.186 254.572,248.186 "/>
<polygon fill="#0096D3" points="471.926,239.155 363.252,130.475 331.417,162.309 254.572,239.155 "/>
<polygon fill="#01B0F0" points="243.67,237.283 298.012,182.944 352.35,128.605 134.997,128.605 "/>
<polygon fill="#01B0F0" points="478.311,232.768 478.311,15.417 369.639,124.089 "/>
<polygon fill="#27BCF3" points="352.35,119.573 243.67,10.901 211.841,42.73 134.997,119.573 "/>
<polygon fill="#4FC9F5" points="232.768,9.031 15.416,9.031 124.095,117.703 155.924,85.874 "/>
<polygon fill="#79201B" points="42.721,49.108 42.721,266.465 61.681,247.504 151.392,157.787 "/>
<polygon fill="#A42D26" points="157.779,164.172 49.107,272.852 266.458,272.852 "/>
<polygon fill="#CC382F" points="49.107,281.884 115.55,348.335 157.778,390.564 266.456,281.884 "/>
<polygon fill="#F0453F" points="42.721,288.27 42.721,505.613 151.392,396.95 "/>
<polygon fill="#F0453F" points="277.358,283.754 168.68,392.434 386.032,392.434 "/>
<polygon fill="#F2625D" points="168.68,401.465 277.358,510.13 350.555,436.938 386.032,401.465 "/>
<polygon fill="#F47F7D" points="323.739,476.525 288.262,512 505.614,512 396.936,403.335 "/>
</svg>
