<?xml version="1.0" encoding="utf-8"?>
<!DOCTYPE svg PUBLIC "-//W3C//DTD SVG 1.1//EN" "http://www.w3.org/Graphics/SVG/1.1/DTD/svg11.dtd">
<svg version="1.1" id="Logo" xmlns="http://www.w3.org/2000/svg" xmlns:xlink="http://www.w3.org/1999/xlink" x="0px" y="0px"
	 width="521.033px" height="521.031px" viewBox="0 0 521.033 521.031" enable-background="new 0 0 521.033 521.031"
	 xml:space="preserve">
<polygon fill="#00577B" points="478.311,471.923 478.311,254.572 369.639,363.244 "/>
<polygon fill="#0079AA" points="363.252,356.857 471.924,248.186 254.572,248.186 "/>
<polygon fill="#0096D3" points="471.926,239.155 363.252,130.475 331.417,162.309 254.572,239.155 "/>
<polygon fill="#01B0F0" points="243.67,237.283 298.012,182.944 352.35,128.605 134.997,128.605 "/>
<polygon fill="#01B0F0" points="478.311,232.768 478.311,15.417 369.639,124.089 "/>
<polygon fill="#27BCF3" points="352.35,119.573 243.67,10.901 211.841,42.73 134.997,119.573 "/>
<polygon fill="#4FC9F5" points="232.768,9.031 15.416,9.031 124.095,117.703 155.924,85.874 "/>
<polygon fill="#79201B" points="42.721,49.108 42.721,266.465 61.681,247.504 151.392,157.787 "/>
<polygon fill="#A42D26" points="157.779,164.172 49.107,272.852 266.458,272.852 "/>
<polygon fill="#CC382F" points="49.107,281.884 115.55,348.335 157.778,390.564 266.456,281.884 "/>
<polygon fill="#F0453F" points="42.721,288.27 42.721,505.613 151.392,396.95 "/>
<polygon fill="#F0453F" points="277.358,283.754 168.68,392.434 386.032,392.434 "/>
<polygon fill="#F2625D" points="168.68,401.465 277.358,510.13 350.555,436.938 386.032,401.465 "/>
<polygon fill="#F47F7D" points="323.739,476.525 288.262,512 505.614,512 396.936,403.335 "/>
</svg>
