<?xml version="1.0" encoding="utf-8"?>
<!DOCTYPE svg PUBLIC "-//W3C//DTD SVG 1.1//EN" "http://www.w3.org/Graphics/SVG/1.1/DTD/svg11.dtd">
<svg version="1.1" id="Logo" xmlns="http://www.w3.org/2000/svg" xmlns:xlink="http://www.w3.org/1999/xlink" x="0px" y="0px"
	 width="1024px" height="1024px" viewBox="-251.482 -251.478 1024 1024" enable-background="new -251.482 -251.478 1024 1024"
	 xml:space="preserve">
<polygon points="722.338,262.135 503.368,472.014 722.338,681.906 "/>
<polygon points="700.153,240.874 262.198,240.874 481.187,450.756 "/>
<polygon points="700.148,210.803 481.19,0.916 262.198,210.803 "/>
<polygon points="443.323,-5.311 5.37,-5.311 224.334,204.579 "/>
<polygon points="722.338,-230.225 503.368,-20.347 722.338,189.547 "/>
<polygon points="443.325,-35.38 224.331,-245.259 5.359,-35.38 "/>
<polygon points="186.46,-251.478 -251.482,-251.478 -32.506,-41.607 "/>
<polygon points="-201.304,258.917 17.662,49.025 -201.304,-160.86 "/>
<polygon points="39.847,70.289 -179.126,280.183 258.829,280.183 "/>
<polygon points="-179.127,310.247 39.841,520.14 258.827,310.248 "/>
<polygon points="-201.304,331.509 -201.304,751.261 17.66,541.399 -46.477,479.925 "/>
<polygon points="515.675,526.369 296.699,316.474 77.714,526.369 "/>
<polygon points="77.708,556.438 296.693,766.294 515.666,556.435 "/>
<polygon points="334.568,772.521 772.518,772.52 553.542,562.66 "/>
</svg>
